<mxfile host="app.diagrams.net" agent="Mozilla/5.0 (Windows NT 10.0; Win64; x64) AppleWebKit/537.36 (KHTML, like Gecko) Chrome/137.0.0.0 Safari/537.36 OPR/121.0.0.0 (Edition std-2)" version="28.2.3">
  <diagram name="Page-1" id="2WHq3_GPZhMxRT811z7M">
    <mxGraphModel dx="1347" dy="953" grid="1" gridSize="10" guides="1" tooltips="1" connect="1" arrows="1" fold="1" page="1" pageScale="1" pageWidth="850" pageHeight="1100" math="1" shadow="0">
      <root>
        <mxCell id="0" />
        <mxCell id="1" parent="0" />
        <mxCell id="SX42cPNDLK1F_WogIu8b-2" style="edgeStyle=orthogonalEdgeStyle;rounded=0;orthogonalLoop=1;jettySize=auto;html=1;" edge="1" parent="1" source="SX42cPNDLK1F_WogIu8b-1" target="SX42cPNDLK1F_WogIu8b-3">
          <mxGeometry relative="1" as="geometry">
            <mxPoint x="390" y="160" as="targetPoint" />
          </mxGeometry>
        </mxCell>
        <mxCell id="SX42cPNDLK1F_WogIu8b-1" value="Program Start" style="ellipse;whiteSpace=wrap;html=1;" vertex="1" parent="1">
          <mxGeometry x="330" y="40" width="120" height="80" as="geometry" />
        </mxCell>
        <mxCell id="SX42cPNDLK1F_WogIu8b-4" style="edgeStyle=orthogonalEdgeStyle;rounded=0;orthogonalLoop=1;jettySize=auto;html=1;exitX=0.5;exitY=1;exitDx=0;exitDy=0;" edge="1" parent="1" source="SX42cPNDLK1F_WogIu8b-3" target="SX42cPNDLK1F_WogIu8b-5">
          <mxGeometry relative="1" as="geometry">
            <mxPoint x="390" y="240" as="targetPoint" />
          </mxGeometry>
        </mxCell>
        <mxCell id="SX42cPNDLK1F_WogIu8b-3" value="&lt;div&gt;Input:&amp;nbsp;&lt;/div&gt;&lt;div&gt;&quot;input a positive integer&quot;&lt;/div&gt;&lt;div&gt;save as variable n&lt;/div&gt;" style="shape=parallelogram;perimeter=parallelogramPerimeter;whiteSpace=wrap;html=1;fixedSize=1;" vertex="1" parent="1">
          <mxGeometry x="300" y="150" width="180" height="60" as="geometry" />
        </mxCell>
        <mxCell id="SX42cPNDLK1F_WogIu8b-6" style="edgeStyle=orthogonalEdgeStyle;rounded=0;orthogonalLoop=1;jettySize=auto;html=1;" edge="1" parent="1" source="SX42cPNDLK1F_WogIu8b-5" target="SX42cPNDLK1F_WogIu8b-7">
          <mxGeometry relative="1" as="geometry">
            <mxPoint x="390" y="310" as="targetPoint" />
          </mxGeometry>
        </mxCell>
        <mxCell id="SX42cPNDLK1F_WogIu8b-5" value="val = 1" style="rounded=0;whiteSpace=wrap;html=1;" vertex="1" parent="1">
          <mxGeometry x="345" y="240" width="90" height="40" as="geometry" />
        </mxCell>
        <mxCell id="SX42cPNDLK1F_WogIu8b-8" style="edgeStyle=orthogonalEdgeStyle;rounded=0;orthogonalLoop=1;jettySize=auto;html=1;" edge="1" parent="1" source="SX42cPNDLK1F_WogIu8b-7" target="SX42cPNDLK1F_WogIu8b-9">
          <mxGeometry relative="1" as="geometry">
            <mxPoint x="350" y="420" as="targetPoint" />
            <Array as="points">
              <mxPoint x="390" y="390" />
              <mxPoint x="430" y="390" />
              <mxPoint x="430" y="450" />
            </Array>
          </mxGeometry>
        </mxCell>
        <mxCell id="SX42cPNDLK1F_WogIu8b-10" value="FALSE" style="edgeLabel;html=1;align=center;verticalAlign=middle;resizable=0;points=[];" vertex="1" connectable="0" parent="SX42cPNDLK1F_WogIu8b-8">
          <mxGeometry x="-0.0057" y="-1" relative="1" as="geometry">
            <mxPoint x="6" y="16" as="offset" />
          </mxGeometry>
        </mxCell>
        <mxCell id="SX42cPNDLK1F_WogIu8b-11" style="edgeStyle=orthogonalEdgeStyle;rounded=0;orthogonalLoop=1;jettySize=auto;html=1;exitX=0.5;exitY=1;exitDx=0;exitDy=0;" edge="1" parent="1" source="SX42cPNDLK1F_WogIu8b-7" target="SX42cPNDLK1F_WogIu8b-12">
          <mxGeometry relative="1" as="geometry">
            <mxPoint x="320" y="430" as="targetPoint" />
            <Array as="points">
              <mxPoint x="390" y="390" />
              <mxPoint x="260" y="390" />
            </Array>
          </mxGeometry>
        </mxCell>
        <mxCell id="SX42cPNDLK1F_WogIu8b-13" value="TRUE" style="edgeLabel;html=1;align=center;verticalAlign=middle;resizable=0;points=[];" vertex="1" connectable="0" parent="SX42cPNDLK1F_WogIu8b-11">
          <mxGeometry x="0.02" relative="1" as="geometry">
            <mxPoint as="offset" />
          </mxGeometry>
        </mxCell>
        <mxCell id="SX42cPNDLK1F_WogIu8b-7" value="n%1 = 0 ?" style="rhombus;whiteSpace=wrap;html=1;" vertex="1" parent="1">
          <mxGeometry x="340" y="310" width="100" height="50" as="geometry" />
        </mxCell>
        <mxCell id="SX42cPNDLK1F_WogIu8b-32" style="edgeStyle=orthogonalEdgeStyle;rounded=0;orthogonalLoop=1;jettySize=auto;html=1;exitX=0.5;exitY=0;exitDx=0;exitDy=0;entryX=1;entryY=0.5;entryDx=0;entryDy=0;" edge="1" parent="1" source="SX42cPNDLK1F_WogIu8b-9" target="SX42cPNDLK1F_WogIu8b-3">
          <mxGeometry relative="1" as="geometry">
            <Array as="points">
              <mxPoint x="530" y="180" />
            </Array>
          </mxGeometry>
        </mxCell>
        <mxCell id="SX42cPNDLK1F_WogIu8b-9" value="output:&lt;br&gt;&quot;error, please input&amp;nbsp;&lt;div&gt;an integer&quot;&lt;/div&gt;" style="shape=parallelogram;perimeter=parallelogramPerimeter;whiteSpace=wrap;html=1;fixedSize=1;" vertex="1" parent="1">
          <mxGeometry x="460" y="420" width="140" height="60" as="geometry" />
        </mxCell>
        <mxCell id="SX42cPNDLK1F_WogIu8b-14" style="edgeStyle=orthogonalEdgeStyle;rounded=0;orthogonalLoop=1;jettySize=auto;html=1;exitX=0.5;exitY=1;exitDx=0;exitDy=0;" edge="1" parent="1" source="SX42cPNDLK1F_WogIu8b-12" target="SX42cPNDLK1F_WogIu8b-15">
          <mxGeometry relative="1" as="geometry">
            <mxPoint x="170" y="520" as="targetPoint" />
          </mxGeometry>
        </mxCell>
        <mxCell id="SX42cPNDLK1F_WogIu8b-16" value="FALSE" style="edgeLabel;html=1;align=center;verticalAlign=middle;resizable=0;points=[];" vertex="1" connectable="0" parent="SX42cPNDLK1F_WogIu8b-14">
          <mxGeometry x="-0.1351" relative="1" as="geometry">
            <mxPoint as="offset" />
          </mxGeometry>
        </mxCell>
        <mxCell id="SX42cPNDLK1F_WogIu8b-18" style="edgeStyle=orthogonalEdgeStyle;rounded=0;orthogonalLoop=1;jettySize=auto;html=1;exitX=0.5;exitY=1;exitDx=0;exitDy=0;" edge="1" parent="1" source="SX42cPNDLK1F_WogIu8b-12" target="SX42cPNDLK1F_WogIu8b-19">
          <mxGeometry relative="1" as="geometry">
            <mxPoint x="340" y="540" as="targetPoint" />
          </mxGeometry>
        </mxCell>
        <mxCell id="SX42cPNDLK1F_WogIu8b-20" value="TRUE" style="edgeLabel;html=1;align=center;verticalAlign=middle;resizable=0;points=[];" vertex="1" connectable="0" parent="SX42cPNDLK1F_WogIu8b-18">
          <mxGeometry x="0.0718" y="3" relative="1" as="geometry">
            <mxPoint x="-10" y="3" as="offset" />
          </mxGeometry>
        </mxCell>
        <mxCell id="SX42cPNDLK1F_WogIu8b-12" value="&lt;svg style=&quot;vertical-align: -0.09ex;&quot; xmlns:xlink=&quot;http://www.w3.org/1999/xlink&quot; viewBox=&quot;0 -666 2433.6 706&quot; role=&quot;img&quot; height=&quot;1.597ex&quot; width=&quot;5.506ex&quot; xmlns=&quot;http://www.w3.org/2000/svg&quot;&gt;&lt;defs&gt;&lt;path d=&quot;M21 287Q22 293 24 303T36 341T56 388T89 425T135 442Q171 442 195 424T225 390T231 369Q231 367 232 367L243 378Q304 442 382 442Q436 442 469 415T503 336T465 179T427 52Q427 26 444 26Q450 26 453 27Q482 32 505 65T540 145Q542 153 560 153Q580 153 580 145Q580 144 576 130Q568 101 554 73T508 17T439 -10Q392 -10 371 17T350 73Q350 92 386 193T423 345Q423 404 379 404H374Q288 404 229 303L222 291L189 157Q156 26 151 16Q138 -11 108 -11Q95 -11 87 -5T76 7T74 17Q74 30 112 180T152 343Q153 348 153 366Q153 405 129 405Q91 405 66 305Q60 285 60 284Q58 278 41 278H27Q21 284 21 287Z&quot; id=&quot;MJX-2-TEX-I-1D45B&quot;&gt;&lt;/path&gt;&lt;path d=&quot;M84 520Q84 528 88 533T96 539L99 540Q106 540 253 471T544 334L687 265Q694 260 694 250T687 235Q685 233 395 96L107 -40H101Q83 -38 83 -20Q83 -19 83 -17Q82 -10 98 -1Q117 9 248 71Q326 108 378 132L626 250L378 368Q90 504 86 509Q84 513 84 520Z&quot; id=&quot;MJX-2-TEX-N-3E&quot;&gt;&lt;/path&gt;&lt;path d=&quot;M96 585Q152 666 249 666Q297 666 345 640T423 548Q460 465 460 320Q460 165 417 83Q397 41 362 16T301 -15T250 -22Q224 -22 198 -16T137 16T82 83Q39 165 39 320Q39 494 96 585ZM321 597Q291 629 250 629Q208 629 178 597Q153 571 145 525T137 333Q137 175 145 125T181 46Q209 16 250 16Q290 16 318 46Q347 76 354 130T362 333Q362 478 354 524T321 597Z&quot; id=&quot;MJX-2-TEX-N-30&quot;&gt;&lt;/path&gt;&lt;/defs&gt;&lt;g transform=&quot;scale(1,-1)&quot; stroke-width=&quot;0&quot; fill=&quot;currentColor&quot; stroke=&quot;currentColor&quot;&gt;&lt;g data-mml-node=&quot;math&quot;&gt;&lt;g data-mml-node=&quot;mi&quot;&gt;&lt;use xlink:href=&quot;#MJX-2-TEX-I-1D45B&quot; data-c=&quot;1D45B&quot;&gt;&lt;/use&gt;&lt;/g&gt;&lt;g transform=&quot;translate(877.8,0)&quot; data-mml-node=&quot;mo&quot;&gt;&lt;use xlink:href=&quot;#MJX-2-TEX-N-3E&quot; data-c=&quot;3E&quot;&gt;&lt;/use&gt;&lt;/g&gt;&lt;g transform=&quot;translate(1933.6,0)&quot; data-mml-node=&quot;mn&quot;&gt;&lt;use xlink:href=&quot;#MJX-2-TEX-N-30&quot; data-c=&quot;30&quot;&gt;&lt;/use&gt;&lt;/g&gt;&lt;/g&gt;&lt;/g&gt;&lt;/svg&gt;?" style="rhombus;whiteSpace=wrap;html=1;" vertex="1" parent="1">
          <mxGeometry x="210" y="430" width="100" height="50" as="geometry" />
        </mxCell>
        <mxCell id="SX42cPNDLK1F_WogIu8b-17" style="edgeStyle=orthogonalEdgeStyle;rounded=0;orthogonalLoop=1;jettySize=auto;html=1;exitX=0;exitY=0.5;exitDx=0;exitDy=0;entryX=0;entryY=0.5;entryDx=0;entryDy=0;" edge="1" parent="1" source="SX42cPNDLK1F_WogIu8b-15" target="SX42cPNDLK1F_WogIu8b-3">
          <mxGeometry relative="1" as="geometry">
            <mxPoint x="130" y="140" as="targetPoint" />
            <Array as="points">
              <mxPoint x="40" y="570" />
              <mxPoint x="40" y="180" />
            </Array>
          </mxGeometry>
        </mxCell>
        <mxCell id="SX42cPNDLK1F_WogIu8b-15" value="Output:&lt;br&gt;&quot;error, please input&amp;nbsp;&lt;div&gt;a positive number&quot;&lt;/div&gt;" style="shape=parallelogram;perimeter=parallelogramPerimeter;whiteSpace=wrap;html=1;fixedSize=1;" vertex="1" parent="1">
          <mxGeometry x="60" y="540" width="150" height="60" as="geometry" />
        </mxCell>
        <mxCell id="SX42cPNDLK1F_WogIu8b-21" style="edgeStyle=orthogonalEdgeStyle;rounded=0;orthogonalLoop=1;jettySize=auto;html=1;exitX=0.5;exitY=1;exitDx=0;exitDy=0;" edge="1" parent="1" source="SX42cPNDLK1F_WogIu8b-19" target="SX42cPNDLK1F_WogIu8b-22">
          <mxGeometry relative="1" as="geometry">
            <mxPoint x="330.33333333333337" y="610" as="targetPoint" />
          </mxGeometry>
        </mxCell>
        <mxCell id="SX42cPNDLK1F_WogIu8b-19" value="output:&lt;div&gt;&lt;span style=&quot;background-color: transparent; color: light-dark(rgb(0, 0, 0), rgb(255, 255, 255));&quot;&gt;val&lt;/span&gt;&lt;/div&gt;" style="shape=parallelogram;perimeter=parallelogramPerimeter;whiteSpace=wrap;html=1;fixedSize=1;" vertex="1" parent="1">
          <mxGeometry x="280" y="540" width="100" height="50" as="geometry" />
        </mxCell>
        <mxCell id="SX42cPNDLK1F_WogIu8b-23" style="edgeStyle=orthogonalEdgeStyle;rounded=0;orthogonalLoop=1;jettySize=auto;html=1;exitX=0.5;exitY=1;exitDx=0;exitDy=0;" edge="1" parent="1" source="SX42cPNDLK1F_WogIu8b-22" target="SX42cPNDLK1F_WogIu8b-24">
          <mxGeometry relative="1" as="geometry">
            <mxPoint x="330.33333333333337" y="660" as="targetPoint" />
          </mxGeometry>
        </mxCell>
        <mxCell id="SX42cPNDLK1F_WogIu8b-22" value="val++" style="rounded=0;whiteSpace=wrap;html=1;" vertex="1" parent="1">
          <mxGeometry x="284.83" y="610" width="90.33" height="30" as="geometry" />
        </mxCell>
        <mxCell id="SX42cPNDLK1F_WogIu8b-26" style="edgeStyle=orthogonalEdgeStyle;rounded=0;orthogonalLoop=1;jettySize=auto;html=1;entryX=0;entryY=0.5;entryDx=0;entryDy=0;exitX=0;exitY=0.5;exitDx=0;exitDy=0;" edge="1" parent="1" source="SX42cPNDLK1F_WogIu8b-24" target="SX42cPNDLK1F_WogIu8b-19">
          <mxGeometry relative="1" as="geometry">
            <mxPoint x="279.99" y="565" as="targetPoint" />
            <mxPoint x="269.98000000000036" y="695.0000000000002" as="sourcePoint" />
            <Array as="points">
              <mxPoint x="220" y="695" />
              <mxPoint x="220" y="565" />
            </Array>
          </mxGeometry>
        </mxCell>
        <mxCell id="SX42cPNDLK1F_WogIu8b-28" value="TRUE" style="edgeLabel;html=1;align=center;verticalAlign=middle;resizable=0;points=[];" vertex="1" connectable="0" parent="SX42cPNDLK1F_WogIu8b-26">
          <mxGeometry x="-0.8227" relative="1" as="geometry">
            <mxPoint x="-7" as="offset" />
          </mxGeometry>
        </mxCell>
        <mxCell id="SX42cPNDLK1F_WogIu8b-29" style="edgeStyle=orthogonalEdgeStyle;rounded=0;orthogonalLoop=1;jettySize=auto;html=1;exitX=0.5;exitY=1;exitDx=0;exitDy=0;" edge="1" parent="1" source="SX42cPNDLK1F_WogIu8b-24" target="SX42cPNDLK1F_WogIu8b-30">
          <mxGeometry relative="1" as="geometry">
            <mxPoint x="329.68965517241384" y="760" as="targetPoint" />
          </mxGeometry>
        </mxCell>
        <mxCell id="SX42cPNDLK1F_WogIu8b-31" value="FALSE" style="edgeLabel;html=1;align=center;verticalAlign=middle;resizable=0;points=[];" vertex="1" connectable="0" parent="SX42cPNDLK1F_WogIu8b-29">
          <mxGeometry x="-0.0958" y="1" relative="1" as="geometry">
            <mxPoint as="offset" />
          </mxGeometry>
        </mxCell>
        <mxCell id="SX42cPNDLK1F_WogIu8b-24" value="\(val \leq n\)?" style="rhombus;whiteSpace=wrap;html=1;" vertex="1" parent="1">
          <mxGeometry x="279.99" y="670" width="100.01" height="50" as="geometry" />
        </mxCell>
        <mxCell id="SX42cPNDLK1F_WogIu8b-30" value="Program end." style="ellipse;whiteSpace=wrap;html=1;" vertex="1" parent="1">
          <mxGeometry x="275.15999999999997" y="770" width="109.69" height="40" as="geometry" />
        </mxCell>
      </root>
    </mxGraphModel>
  </diagram>
</mxfile>
